<?xml version="1.0" standalone="no"?>
<!DOCTYPE svg PUBLIC "-//W3C//DTD SVG 20010904//EN"
 "http://www.w3.org/TR/2001/REC-SVG-20010904/DTD/svg10.dtd">
<svg version="1.0" xmlns="http://www.w3.org/2000/svg"
 width="300.000000pt" height="300.000000pt" viewBox="0 0 300.000000 300.000000"
 preserveAspectRatio="xMidYMid meet">
<metadata>
Created by potrace 1.14, written by Peter Selinger 2001-2017
</metadata>
<g transform="translate(0.000000,300.000000) scale(0.100000,-0.100000)"
fill="#000000" stroke="none">
<path d="M1835 2858 c-35 -19 -88 -43 -340 -158 -27 -12 -93 -43 -145 -67 -52
-25 -138 -64 -190 -88 -52 -23 -131 -59 -175 -80 -44 -20 -98 -45 -120 -55
-22 -10 -74 -33 -115 -53 -41 -19 -154 -71 -250 -115 -96 -44 -215 -99 -265
-122 -50 -23 -107 -49 -127 -57 -21 -8 -38 -17 -38 -18 0 -4 132 -295 200
-440 23 -49 51 -110 62 -135 44 -97 201 -438 223 -485 59 -125 319 -693 331
-722 8 -18 20 -33 27 -33 7 0 57 122 116 283 169 462 301 818 650 1759 115
312 211 574 213 584 4 25 -12 26 -57 2z"/>
<path d="M2035 2797 c-9 -21 -46 -122 -84 -225 -66 -181 -412 -1114 -473
-1277 -16 -44 -39 -105 -50 -135 -11 -30 -64 -174 -118 -320 -180 -485 -240
-647 -240 -654 0 -16 45 1 257 100 243 114 323 150 418 194 33 15 94 43 135
63 206 95 912 419 978 448 17 7 32 19 32 26 0 11 -66 161 -150 338 -51 108
-247 535 -285 620 -14 33 -30 67 -35 77 -8 14 -56 119 -237 518 -17 36 -47
103 -68 150 -51 115 -60 124 -80 77z"/>
</g>
</svg>
